<svg xmlns="http://www.w3.org/2000/svg" style="display: none;"><symbol id="percentage" viewBox="0 0 512 512"><title>percentage</title><g> <g> <path d="M493.297,159.694c-12.477-30.878-31.231-59.828-56.199-84.792c-24.964-24.967-53.914-43.722-84.792-56.199 c-30.882-12.481-63.69-18.703-96.484-18.703c-32.748,0-65.497,6.249-96.315,18.744c-30.814,12.49-59.695,31.242-84.607,56.158 c-24.915,24.911-43.668,53.792-56.158,84.607C6.249,190.325,0,223.073,0,255.821c0,32.794,6.222,65.602,18.701,96.485 c12.477,30.878,31.231,59.829,56.199,84.793c24.964,24.967,53.914,43.722,84.792,56.199c30.882,12.48,63.69,18.701,96.484,18.701 c32.748,0,65.497-6.249,96.315-18.743c30.814-12.49,59.695-31.242,84.607-56.158c24.916-24.912,43.669-53.793,56.159-84.607 c12.494-30.817,18.743-63.565,18.744-96.315C512,223.384,505.778,190.575,493.297,159.694z M461.613,339.661 c-10.824,26.684-27.021,51.649-48.661,73.292c-21.643,21.64-46.608,37.837-73.291,48.659 c-26.679,10.818-55.078,16.241-83.484,16.241c-28.477,0-56.947-5.406-83.688-16.214c-26.744-10.813-51.76-27.007-73.441-48.685 c-21.679-21.682-37.874-46.697-48.685-73.442c-10.808-26.741-16.214-55.212-16.213-83.689c0-28.406,5.424-56.804,16.241-83.483 c10.821-26.683,27.018-51.648,48.659-73.291c21.643-21.64,46.608-37.837,73.292-48.659c26.679-10.818,55.078-16.241,83.484-16.241 c28.477,0,56.947,5.405,83.688,16.214c26.744,10.813,51.76,27.007,73.441,48.685c21.679,21.682,37.873,46.697,48.685,73.441 c10.808,26.741,16.214,55.211,16.214,83.688C477.854,284.582,472.431,312.98,461.613,339.661z"/> </g> </g><g> <g> <path d="M362.32,149.681c-6.524-6.524-17.102-6.524-23.627,0L149.68,338.694c-6.524,6.525-6.524,17.102,0,23.627 c6.525,6.525,17.102,6.525,23.627,0l189.014-189.014C368.844,166.783,368.844,156.204,362.32,149.681z"/> </g> </g><g> <g> <path d="M246.76,137.073c-2.448-6.044-6.146-11.729-11.009-16.589c-4.859-4.863-10.544-8.56-16.589-11.009 c-6.048-2.451-12.453-3.671-18.852-3.671s-12.804,1.22-18.852,3.671c-6.044,2.448-11.729,6.146-16.589,11.009 c-4.863,4.858-8.56,10.544-11.009,16.589c-2.451,6.048-3.671,12.453-3.671,18.852s1.22,12.804,3.671,18.852 c2.448,6.044,6.147,11.729,11.009,16.589c4.859,4.863,10.544,8.56,16.589,11.009c6.048,2.451,12.453,3.671,18.852,3.671 s12.804-1.22,18.852-3.671c6.044-2.448,11.729-6.146,16.589-11.009c4.863-4.859,8.56-10.544,11.009-16.589 c2.451-6.048,3.671-12.453,3.671-18.852S249.212,143.121,246.76,137.073z M215.795,162.22c-0.814,2-2.009,3.853-3.671,5.519 c-1.665,1.662-3.518,2.857-5.518,3.671c-1.997,0.811-4.143,1.222-6.295,1.222c-2.153,0-4.298-0.412-6.295-1.222 c-2-0.814-3.853-2.009-5.518-3.671c-1.662-1.665-2.857-3.518-3.671-5.518c-0.811-1.997-1.222-4.143-1.222-6.295 c-0.001-2.153,0.411-4.299,1.221-6.296c0.814-2,2.009-3.853,3.671-5.518c1.666-1.662,3.518-2.858,5.519-3.671 c1.997-0.811,4.143-1.222,6.295-1.222c2.153,0,4.298,0.412,6.295,1.222c2,0.814,3.853,2.009,5.518,3.671 c1.662,1.665,2.857,3.518,3.671,5.518c0.811,1.997,1.222,4.143,1.222,6.295C217.017,158.077,216.605,160.223,215.795,162.22z"/> </g> </g><g> <g> <path d="M369.275,326.251c-2.448-6.044-6.147-11.729-11.009-16.589c-4.858-4.863-10.544-8.56-16.589-11.009 c-6.048-2.451-12.453-3.671-18.852-3.671s-12.804,1.22-18.852,3.671c-6.044,2.448-11.729,6.146-16.589,11.009 c-4.863,4.858-8.56,10.544-11.009,16.589c-2.451,6.048-3.671,12.453-3.671,18.852s1.22,12.804,3.671,18.852 c2.448,6.044,6.146,11.729,11.009,16.589c4.859,4.863,10.544,8.56,16.589,11.009c6.048,2.451,12.453,3.671,18.852,3.671 s12.804-1.22,18.852-3.671c6.044-2.448,11.729-6.146,16.589-11.009c4.863-4.859,8.56-10.544,11.009-16.589 c2.451-6.048,3.671-12.453,3.671-18.852S371.727,332.299,369.275,326.251z M338.311,351.396c-0.814,2-2.009,3.853-3.671,5.518 c-1.665,1.662-3.518,2.857-5.518,3.671c-1.997,0.811-4.143,1.222-6.295,1.222c-2.153,0-4.298-0.412-6.295-1.222 c-2-0.814-3.853-2.009-5.518-3.671c-1.662-1.665-2.857-3.518-3.671-5.518c-0.811-1.997-1.223-4.143-1.222-6.295 c0-2.153,0.412-4.298,1.222-6.295c0.814-2,2.009-3.853,3.671-5.518c1.665-1.662,3.518-2.857,5.519-3.671 c1.997-0.811,4.143-1.222,6.295-1.222c2.153,0,4.298,0.412,6.295,1.222c1.998,0.814,3.85,2.009,5.517,3.671 c1.662,1.665,2.857,3.518,3.671,5.518c0.811,1.997,1.222,4.143,1.222,6.295C339.533,347.254,339.121,349.4,338.311,351.396z"/> </g> </g></symbol><symbol id="plus" viewBox="0 0 512 512"><title>plus</title><g> <g> <path d="M491.841,156.427c-19.471-45.946-51.936-85.013-92.786-112.637C358.217,16.166,308.893-0.007,256,0 c-35.254-0.002-68.946,7.18-99.571,20.158C110.484,39.63,71.416,72.093,43.791,112.943C16.167,153.779-0.007,203.104,0,256 c-0.002,35.255,7.181,68.948,20.159,99.573c19.471,45.946,51.937,85.013,92.786,112.637C153.783,495.834,203.107,512.007,256,512 c35.253,0.002,68.946-7.18,99.571-20.158c45.945-19.471,85.013-51.935,112.638-92.785C495.834,358.22,512.007,308.894,512,256 C512.002,220.744,504.819,187.052,491.841,156.427z M460.413,342.257c-16.851,39.781-45.045,73.723-80.476,97.676 c-35.443,23.953-78.02,37.926-123.936,37.933c-30.619-0.002-59.729-6.218-86.255-17.454 c-39.781-16.851-73.724-45.044-97.677-80.475C48.114,344.495,34.14,301.917,34.133,256c0.002-30.62,6.219-59.731,17.454-86.257 c16.851-39.781,45.045-73.724,80.476-97.676C167.506,48.113,210.084,34.14,256,34.133c30.619,0.002,59.729,6.218,86.255,17.454 c39.781,16.85,73.724,45.044,97.677,80.475c23.953,35.443,37.927,78.02,37.934,123.939 C477.864,286.62,471.648,315.731,460.413,342.257z"/> </g> </g><g> <g> <path d="M389.594,239.301H272.699V122.406c0-9.222-7.477-16.699-16.699-16.699c-9.222,0-16.699,7.477-16.699,16.699v116.895 H122.406c-9.222,0-16.699,7.477-16.699,16.699s7.477,16.699,16.699,16.699h116.895v116.895c0,9.222,7.477,16.699,16.699,16.699 c9.222,0,16.699-7.477,16.699-16.699V272.699h116.895c9.222,0,16.699-7.477,16.699-16.699S398.817,239.301,389.594,239.301z"/> </g> </g></symbol><symbol id="equal" viewBox="0 0 512 512"><title>equal</title><g> <g> <path d="M491.841,156.427c-19.471-45.946-51.936-85.013-92.786-112.637C358.217,16.166,308.893-0.007,256,0 c-35.254-0.002-68.946,7.18-99.571,20.158C110.484,39.63,71.416,72.093,43.791,112.943C16.167,153.779-0.007,203.104,0,256 c-0.002,35.255,7.181,68.948,20.159,99.573c19.471,45.946,51.937,85.013,92.786,112.637C153.783,495.834,203.107,512.007,256,512 c35.253,0.002,68.946-7.18,99.571-20.158c45.945-19.471,85.013-51.935,112.638-92.785C495.834,358.22,512.007,308.894,512,256 C512.002,220.744,504.819,187.052,491.841,156.427z M460.413,342.257c-16.851,39.781-45.045,73.723-80.476,97.676 c-35.443,23.953-78.02,37.926-123.936,37.933c-30.619-0.002-59.729-6.218-86.255-17.454 c-39.781-16.851-73.724-45.044-97.677-80.475C48.114,344.495,34.14,301.917,34.133,256c0.002-30.62,6.219-59.731,17.454-86.257 c16.851-39.781,45.045-73.723,80.476-97.676C167.506,48.113,210.084,34.14,256,34.133c30.619,0.002,59.729,6.218,86.255,17.454 c39.781,16.85,73.724,45.044,97.677,80.475c23.953,35.443,37.927,78.02,37.934,123.939 C477.864,286.62,471.648,315.731,460.413,342.257z"/> </g> </g><g> <g> <path d="M389.594,283.832H122.406c-9.222,0-16.699,7.477-16.699,16.699s7.477,16.699,16.699,16.699h267.189 c9.222,0,16.699-7.477,16.699-16.699S398.817,283.832,389.594,283.832z"/> </g> </g><g> <g> <path d="M389.594,183.636H122.406c-9.222,0-16.699,7.477-16.699,16.699c0,9.222,7.477,16.699,16.699,16.699h267.189 c9.222,0,16.699-7.477,16.699-16.699C406.294,191.113,398.817,183.636,389.594,183.636z"/> </g> </g></symbol><symbol id="multiply" viewBox="0 0 512 512"><title>multiply</title><g> <g> <path d="M493.297,159.693c-12.477-30.878-31.231-59.828-56.199-84.792c-24.965-24.969-53.917-43.723-84.795-56.2 C321.421,6.22,288.611,0,255.816,0c-32.747,0-65.495,6.249-96.311,18.744c-30.813,12.491-59.693,31.244-84.603,56.158 c-24.915,24.911-43.668,53.792-56.158,84.607C6.249,190.324,0,223.072,0,255.822c0,32.794,6.222,65.602,18.701,96.485 c12.477,30.877,31.231,59.828,56.2,84.792c24.964,24.967,53.914,43.722,84.792,56.199c30.882,12.48,63.69,18.701,96.484,18.703 c32.748,0,65.497-6.249,96.315-18.743c30.814-12.49,59.695-31.242,84.607-56.158c24.915-24.912,43.668-53.793,56.158-84.608 c12.494-30.817,18.743-63.565,18.744-96.315C512,223.383,505.778,190.575,493.297,159.693z M461.611,339.66 c-10.821,26.683-27.018,51.648-48.659,73.292c-21.643,21.64-46.608,37.837-73.291,48.659 c-26.679,10.818-55.078,16.241-83.484,16.241c-28.477,0-56.947-5.406-83.688-16.214c-26.744-10.813-51.76-27.008-73.441-48.685 C77.37,391.27,61.174,366.255,50.363,339.51c-10.808-26.741-16.214-55.212-16.213-83.689c-0.001-28.405,5.423-56.802,16.24-83.482 c10.821-26.683,27.018-51.648,48.659-73.291c21.643-21.64,46.607-37.837,73.289-48.659c26.678-10.818,55.075-16.242,83.48-16.242 c28.478,0,56.95,5.405,83.691,16.213c26.745,10.811,51.762,27.007,73.445,48.686c21.678,21.682,37.873,46.697,48.685,73.441 c10.808,26.741,16.214,55.211,16.214,83.688C477.852,284.582,472.429,312.98,461.611,339.66z"/> </g> </g><g> <g> <path d="M279.627,256.001l82.693-82.693c6.525-6.525,6.525-17.102,0-23.627c-6.524-6.524-17.102-6.524-23.627,0L256,232.375 l-82.693-82.693c-6.525-6.524-17.102-6.524-23.627,0c-6.524,6.524-6.524,17.102,0,23.627l82.693,82.693l-82.693,82.693 c-6.524,6.523-6.524,17.102,0,23.627c6.525,6.524,17.102,6.524,23.627,0L256,279.628l82.693,82.693 c6.525,6.524,17.102,6.524,23.627,0c6.525-6.524,6.525-17.102,0-23.627L279.627,256.001z"/> </g> </g></symbol><symbol id="minus" viewBox="0 0 512 512"><title>minus</title><g> <g> <path d="M491.841,156.427c-19.471-45.946-51.936-85.013-92.786-112.637C358.217,16.166,308.893-0.007,256,0 c-35.254-0.002-68.946,7.18-99.571,20.158C110.484,39.63,71.416,72.093,43.791,112.943C16.167,153.779-0.007,203.104,0,256 c-0.002,35.255,7.181,68.948,20.159,99.573c19.471,45.946,51.937,85.013,92.786,112.637C153.783,495.834,203.107,512.007,256,512 c35.253,0.002,68.946-7.18,99.571-20.158c45.945-19.471,85.013-51.935,112.638-92.785C495.834,358.22,512.007,308.894,512,256 C512.002,220.744,504.819,187.052,491.841,156.427z M460.413,342.257c-16.851,39.781-45.045,73.723-80.476,97.676 c-35.443,23.953-78.02,37.926-123.936,37.933c-30.619-0.002-59.729-6.218-86.255-17.454 c-39.781-16.851-73.724-45.044-97.677-80.475C48.114,344.495,34.14,301.917,34.133,256c0.002-30.62,6.219-59.731,17.454-86.257 c16.851-39.781,45.045-73.724,80.476-97.676C167.506,48.113,210.084,34.14,256,34.133c30.619,0.002,59.729,6.218,86.255,17.454 c39.781,16.85,73.724,45.044,97.677,80.475c23.953,35.443,37.927,78.02,37.934,123.939 C477.864,286.62,471.648,315.731,460.413,342.257z"/> </g> </g><g> <g> <path d="M389.594,239.301H122.406c-9.222,0-16.699,7.477-16.699,16.699s7.477,16.699,16.699,16.699h267.189 c9.222,0,16.699-7.477,16.699-16.699S398.817,239.301,389.594,239.301z"/> </g> </g></symbol><symbol id="power-button-symbol" viewBox="0 0 513.32 513.32"><title>power-button-symbol</title><path d="M331.519,149.718c-8.555,8.555-8.555,21.388,0,29.944c21.388,21.388,32.082,47.055,32.082,76.998 c0,59.887-47.055,106.942-106.942,106.942S149.718,316.547,149.718,256.66c0-29.944,10.694-55.61,32.083-76.998 c8.555-8.555,8.555-21.388,0-29.944c-8.555-8.555-21.388-8.555-29.944,0c-27.805,27.805-44.916,66.304-44.916,106.942 c0,83.414,66.304,149.718,149.718,149.718s149.718-66.304,149.718-149.718c0-40.638-17.11-79.137-44.916-106.942 C352.907,141.163,340.074,141.163,331.519,149.718L331.519,149.718z"/><path d="M256.66,256.66c12.833,0,21.388-8.555,21.388-21.388v-128.33c0-12.833-8.555-21.388-21.388-21.388 s-21.388,8.555-21.388,21.388v128.33C235.272,248.105,243.827,256.66,256.66,256.66z"/><path d="M256.66,0C115.497,0,0,115.497,0,256.66s115.497,256.66,256.66,256.66s256.66-115.497,256.66-256.66S397.823,0,256.66,0z M256.66,470.543c-117.636,0-213.883-96.247-213.883-213.883S139.024,42.777,256.66,42.777s213.883,96.247,213.883,213.883 S374.296,470.543,256.66,470.543z"/></symbol><symbol id="power-button" viewBox="0 0 512 512"><title>power-button</title><path d="m256 0c-140.609375 0-256 115.390625-256 256s115.390625 256 256 256 256-115.390625 256-256-115.390625-256-256-256zm-15 121h30v150h-30zm15 270c-74.441406 0-135-60.558594-135-135 0-48.0625 25.855469-92.855469 67.484375-116.925781l15.03125 25.957031c-32.386719 18.738281-52.515625 53.585938-52.515625 90.96875 0 57.890625 47.109375 105 105 105s105-47.109375 105-105c0-37.382812-20.128906-72.230469-52.515625-90.96875l15.03125-25.957031c41.628906 24.070312 67.484375 68.863281 67.484375 116.925781 0 74.441406-60.558594 135-135 135zm0 0"/></symbol><symbol id="copyright" viewBox="0 0 276.715 276.715"><title>copyright</title><path d="M138.357,0C62.066,0,0,62.066,0,138.357s62.066,138.357,138.357,138.357s138.357-62.066,138.357-138.357 S214.648,0,138.357,0z M138.357,258.715C71.992,258.715,18,204.723,18,138.357S71.992,18,138.357,18 s120.357,53.992,120.357,120.357S204.723,258.715,138.357,258.715z"/><path d="M194.798,160.903c-4.188-2.677-9.753-1.454-12.432,2.732c-8.694,13.593-23.503,21.708-39.614,21.708 c-25.908,0-46.985-21.078-46.985-46.986s21.077-46.986,46.985-46.986c15.633,0,30.2,7.747,38.968,20.723 c2.782,4.117,8.375,5.201,12.496,2.418c4.118-2.782,5.201-8.377,2.418-12.496c-12.118-17.937-32.262-28.645-53.882-28.645 c-35.833,0-64.985,29.152-64.985,64.986s29.152,64.986,64.985,64.986c22.281,0,42.759-11.218,54.778-30.009 C200.208,169.147,198.985,163.582,194.798,160.903z"/></symbol><symbol id="formula" viewBox="0 -17 512.00003 512"><title>formula</title><path d="m59.734375 59.734375h17.066406c4.710938 0 8.53125-3.820313 8.53125-8.535156 0-4.710938-3.820312-8.53125-8.53125-8.53125h-17.066406c-4.714844 0-8.535156 3.820312-8.535156 8.53125 0 4.714843 3.820312 8.535156 8.535156 8.535156zm0 0"/><path d="m110.933594 59.734375h17.066406c4.710938 0 8.535156-3.820313 8.535156-8.535156 0-4.710938-3.824218-8.53125-8.535156-8.53125h-17.066406c-4.714844 0-8.535156 3.820312-8.535156 8.53125 0 4.714843 3.820312 8.535156 8.535156 8.535156zm0 0"/><path d="m162.132812 59.734375h34.132813c4.714844 0 8.535156-3.820313 8.535156-8.535156 0-4.710938-3.820312-8.53125-8.535156-8.53125h-34.132813c-4.710937 0-8.53125 3.820312-8.53125 8.53125 0 4.714843 3.820313 8.535156 8.53125 8.535156zm0 0"/><path d="m230.398438 59.734375h187.734374c4.714844 0 8.535157-3.820313 8.535157-8.535156 0-4.710938-3.820313-8.53125-8.535157-8.53125h-187.734374c-4.710938 0-8.53125 3.820312-8.53125 8.53125 0 4.714843 3.820312 8.535156 8.53125 8.535156zm0 0"/><path d="m486.398438 170.667969h-17.066407v-128c-.027343-23.554688-19.113281-42.6406252-42.664062-42.667969h-384c-23.554688.0273438-42.6406252 19.113281-42.667969 42.667969v315.730469c.0273438 23.554687 19.113281 42.640624 42.667969 42.667968h162.132812v51.199219c0 14.140625 11.460938 25.601563 25.597657 25.601563h256c14.140624 0 25.601562-11.460938 25.601562-25.601563v-256c0-14.136719-11.460938-25.597656-25.601562-25.597656zm-443.730469 213.332031c-14.140625 0-25.601563-11.460938-25.601563-25.601562v-315.730469c0-14.140625 11.460938-25.601563 25.601563-25.601563h384c14.136719 0 25.597656 11.460938 25.597656 25.601563v128h-25.597656v-68.269531c0-9.425782-7.640625-17.066407-17.066407-17.066407h-349.867187c-9.207031-.195312-16.839844 7.09375-17.066406 16.300781v240.46875c.226562 9.207032 7.859375 16.492188 17.066406 16.296876h145.066406v25.601562zm187.730469-213.332031c-10.808594.042969-20.425782 6.875-24.027344 17.066406h-69.835938v-34.132813h273.066406v17.066407zm-170.664063 170.597656v-34.066406h59.730469v34.132812zm349.867187-238.867187v34.136718h-273.066406v-34.136718zm-290.136718 34.136718h-59.730469v-34.136718h59.730469zm-59.730469 119.464844h59.730469v34.132812h-59.730469zm76.800781 0h68.265625v34.132812h-68.265625zm68.265625-17.066406h-68.265625v-34.132813h68.265625zm-85.335937 0h-59.730469v-34.132813h59.730469zm-59.730469-51.199219v-34.132813h59.730469v34.132813zm76.800781 119.464844h68.265625v34.132812h-68.265625zm358.398438 145.066406c0 4.714844-3.820313 8.535156-8.535156 8.535156h-256c-4.710938 0-8.53125-3.820312-8.53125-8.535156v-256c0-4.710937 3.820312-8.53125 8.53125-8.53125h256c4.714843 0 8.535156 3.820313 8.535156 8.53125zm0 0"/><path d="m349.867188 307.199219h-32.425782l6.824219-68.265625c0-9.425782 7.640625-17.066406 17.066406-17.066406s17.066407 7.640624 17.066407 17.066406c0 4.710937 3.820312 8.53125 8.535156 8.53125 4.710937 0 8.53125-3.820313 8.53125-8.53125-.375-18.410156-15.285156-33.199219-33.699219-33.429688-18.410156-.230468-33.683594 14.183594-34.523437 32.574219l-6.867188 69.121094h-27.308594c-4.710937 0-8.53125 3.820312-8.53125 8.535156 0 4.710937 3.820313 8.53125 8.53125 8.53125h25.601563l-8.535157 85.335937c0 9.425782-7.640624 17.066407-17.066406 17.066407-9.425781 0-17.066406-7.640625-17.066406-17.066407 0-4.714843-3.820312-8.535156-8.535156-8.535156-4.710938 0-8.53125 3.820313-8.53125 8.535156.378906 18.40625 15.289062 33.195313 33.699218 33.425782 18.410157.230468 33.6875-14.179688 34.523438-32.574219l8.578125-86.1875h34.132813c4.710937 0 8.53125-3.820313 8.53125-8.53125 0-4.714844-3.820313-8.535156-8.53125-8.535156zm0 0"/><path d="m449.765625 343.832031c-3.332031-3.328125-8.734375-3.328125-12.066406 0l-32.367188 32.367188-32.367187-32.367188c-3.347656-3.230469-8.667969-3.1875-11.960938.105469-3.292968 3.292969-3.335937 8.613281-.105468 11.960938l32.367187 32.367187-32.367187 32.367187c-2.214844 2.144532-3.105469 5.316407-2.324219 8.300782.78125 2.980468 3.109375 5.3125 6.09375 6.09375s6.15625-.109375 8.296875-2.328125l32.367187-32.367188 32.367188 32.367188c3.347656 3.234375 8.671875 3.1875 11.964843-.101563 3.289063-3.292968 3.335938-8.617187.101563-11.964844l-32.367187-32.367187 32.367187-32.367187c3.332031-3.332032 3.332031-8.734376 0-12.066407zm0 0"/></symbol></svg>